<svg width="480" height="42" viewBox="0 0 480 42" fill="none" xmlns="http://www.w3.org/2000/svg">
<g clip-path="url(#clip0_1703_16680)">
<path d="M81.171 6.54492H74.6719V35.4315H81.171V6.54492Z" fill="#004A9D"/>
<path d="M85.7012 35.4315V6.54492H93.253L99.1801 17.1374C100.925 20.329 102.454 23.6361 103.757 27.0361H103.894C103.483 23.0336 103.299 19.0104 103.345 14.9866V6.54492H109.272V35.4315H102.407L96.2966 24.307C94.5338 20.9862 92.9449 17.574 91.5367 14.0846H91.3994C91.5367 17.9469 91.5367 22.0174 91.5367 26.7355V35.4315H85.7012Z" fill="#004A9D"/>
<path d="M120.646 35.4315L111.492 6.54492H118.563L122.042 18.7564C123.026 22.2024 123.918 25.4866 124.582 29.0945H124.719C125.429 25.6253 126.321 22.1562 127.305 18.8951L130.944 6.54492H137.809L128.152 35.4315H120.646Z" fill="#004A9D"/>
<path d="M156.827 23.22H146.3V30.089H158.04V35.4315H139.801V6.54492H157.445V11.9106H146.3V17.9006H156.827V23.22Z" fill="#004A9D"/>
<path d="M161.404 7.05405C164.253 6.63043 167.13 6.4294 170.009 6.45273C173.229 6.18379 176.447 6.99679 179.163 8.7655C180.039 9.49273 180.733 10.418 181.191 11.4665C181.648 12.5151 181.855 13.6576 181.794 14.8018C181.775 16.3697 181.279 17.8937 180.375 19.1677C179.47 20.4417 178.2 21.4042 176.737 21.9252C177.752 22.4576 178.628 23.2257 179.292 24.1665C179.956 25.1073 180.39 26.1939 180.559 27.3371C181.451 30.5981 182.344 34.2754 182.847 35.4781H176.371C175.483 33.3085 174.816 31.0536 174.38 28.7479C173.602 25.14 172.389 24.1223 169.803 24.1223H167.835V35.4781H161.404V7.05405ZM167.789 19.4737H170.352C173.579 19.4737 175.478 17.8547 175.478 15.3107C175.478 12.7666 173.693 11.3327 170.718 11.2864C169.736 11.3003 168.757 11.3931 167.789 11.564V19.4737Z" fill="#004A9D"/>
<path d="M185.684 28.7248C187.913 29.8685 190.37 30.4853 192.869 30.5287C195.821 30.5287 197.446 29.2798 197.446 27.4065C197.446 25.5331 196.096 24.5849 192.663 23.336C187.903 21.6477 184.814 19.0111 184.814 14.8018C184.814 9.87563 188.887 6.10581 195.615 6.10581C198.125 6.04987 200.616 6.54708 202.916 7.56286L201.382 12.836C199.527 11.9659 197.501 11.5311 195.455 11.564C192.64 11.564 191.29 12.8591 191.29 14.3624C191.29 15.8657 192.892 17.0221 196.599 18.4329C201.634 20.3294 204.014 23.0585 204.014 27.0364C204.014 31.8933 200.33 36.01 192.572 36.01C189.775 36.0462 187.006 35.4454 184.471 34.2523L185.684 28.7248Z" fill="#004A9D"/>
<path d="M213.81 6.54492H207.311V35.4315H213.81V6.54492Z" fill="#004A9D"/>
<path d="M244.519 20.815C244.519 30.2742 238.821 36.033 230.468 36.033C222.115 36.033 217.035 29.5573 217.035 21.3238C217.035 12.674 222.505 6.19824 230.949 6.19824C239.393 6.19824 244.519 12.7203 244.519 20.815ZM223.923 21.185C223.923 26.8513 226.555 30.8293 230.789 30.8293C235.022 30.8293 237.654 26.6432 237.654 21.0231C237.654 15.8425 235.205 11.3789 230.789 11.3789C226.372 11.3789 223.923 15.5881 223.923 21.185Z" fill="#004A9D"/>
<path d="M247.701 35.4315V6.54492H255.23L261.18 17.1374C262.916 20.3336 264.444 23.6401 265.757 27.0361C265.441 23.0281 265.341 19.0055 265.459 14.9866V6.54492H271.409V35.4315H264.544L258.434 24.307C256.609 20.9902 254.959 17.5779 253.491 14.0846H253.354C253.514 17.9006 253.605 21.9711 253.605 26.6892V35.3852L247.701 35.4315Z" fill="#004A9D"/>
<path d="M292.898 23.22H282.371V30.089H294.133V35.4315H275.895V6.54492H293.538V11.9106H282.371V17.9006H292.898V23.22Z" fill="#004A9D"/>
<path d="M297.68 28.7248C299.909 29.8685 302.366 30.4853 304.866 30.5287C307.818 30.5287 309.443 29.2798 309.443 27.4065C309.443 25.5331 308.092 24.5849 304.637 23.336C299.9 21.6477 296.81 19.0111 296.81 14.8018C296.81 9.87563 300.884 6.10581 307.612 6.10581C310.121 6.04987 312.612 6.54708 314.912 7.56286L313.516 12.836C311.656 11.9192 309.613 11.4445 307.543 11.4483C304.728 11.4483 303.378 12.7435 303.378 14.2468C303.378 15.7501 304.98 16.9065 308.687 18.3173C313.722 20.2137 316.102 22.9428 316.102 26.9208C316.102 31.7776 312.417 35.8944 304.66 35.8944C301.863 35.9305 299.094 35.3298 296.559 34.1366L297.68 28.7248Z" fill="#004A9D"/>
<path d="M328.574 6.54492H335.051V29.9502H346.424V35.4315H328.574V6.54492Z" fill="#004A9D"/>
<path d="M356.08 28.0306L354.066 35.4315H347.361L356.08 6.54492H364.57L373.427 35.4315H366.561L364.273 28.0306H356.08ZM363.335 23.1275L361.573 16.9987C361.046 15.2872 360.543 13.1595 360.131 11.4249C359.696 13.1595 359.284 15.3335 358.804 16.9987L356.996 23.1275H363.335Z" fill="#004A9D"/>
<path d="M404.687 34.6914C402.348 35.6083 399.849 36.0332 397.341 35.9403C387.478 35.9403 382.375 29.7189 382.375 21.4854C382.375 11.633 389.24 6.15175 397.982 6.15175C400.395 6.06178 402.798 6.49553 405.031 7.42377L403.703 12.6275C401.956 11.8978 400.079 11.5358 398.188 11.5636C396.936 11.4759 395.68 11.666 394.508 12.1209C393.336 12.5757 392.277 13.2841 391.405 14.1965C390.532 15.1088 389.868 16.203 389.459 17.4022C389.049 18.6015 388.904 19.8767 389.034 21.1385C388.913 22.3911 389.065 23.6552 389.48 24.8418C389.895 26.0284 390.563 27.1086 391.435 28.0062C392.308 28.9038 393.365 29.5969 394.532 30.0367C395.699 30.4765 396.947 30.6522 398.188 30.5515C400.02 30.5521 401.838 30.2393 403.566 29.6264L404.687 34.6914Z" fill="#004A9D"/>
<path d="M407.867 7.05385C410.724 6.62996 413.608 6.42893 416.495 6.45253C419.716 6.16941 422.938 6.98354 425.649 8.76531C426.525 9.49253 427.22 10.4178 427.677 11.4663C428.134 12.5149 428.341 13.6574 428.28 14.8017C428.259 16.3443 427.778 17.8446 426.9 19.1069C426.022 20.3693 424.789 21.3352 423.36 21.8787C424.371 22.4139 425.242 23.1833 425.902 24.1239C426.563 25.0645 426.993 26.1496 427.159 27.2906C428.052 30.5517 428.944 34.229 429.447 35.4316H422.834C421.958 33.2579 421.292 31.0041 420.843 28.7014C420.088 25.0935 418.852 24.0759 416.266 24.0759H414.206V35.4316H407.799L407.867 7.05385ZM414.206 19.4735H416.747C419.973 19.4735 421.873 17.8545 421.873 15.3105C421.873 12.7664 420.088 11.3325 417.136 11.2862C416.153 11.2978 415.174 11.3906 414.206 11.5638V19.4735Z" fill="#004A9D"/>
<path d="M438.191 6.3137V22.9426C438.191 27.915 440.045 30.4359 443.363 30.4359C446.681 30.4359 448.626 28.1232 448.626 22.9426V6.3137H455.08V22.5031C455.08 31.4073 450.503 35.6628 443.157 35.6628C435.811 35.6628 431.715 31.6155 431.715 22.4106V6.22119L438.191 6.3137Z" fill="#004A9D"/>
<path d="M457.779 31.9161L471.396 12.1187V11.9568H459.061V6.54492H479.794V10.3147L466.475 29.8577V30.0427H480V35.4315H457.779V31.9161Z" fill="#004A9D"/>
<path d="M33.2284 20.9998C33.2284 21.8323 32.9841 22.6461 32.5264 23.3383C32.0688 24.0305 31.4183 24.57 30.6573 24.8886C29.8962 25.2072 29.0588 25.2906 28.2509 25.1281C27.4429 24.9657 26.7008 24.5648 26.1183 23.9762C25.5358 23.3875 25.1392 22.6375 24.9785 21.821C24.8178 21.0044 24.9002 20.1581 25.2155 19.389C25.5307 18.6198 26.0645 17.9624 26.7495 17.4999C27.4344 17.0374 28.2396 16.7905 29.0634 16.7905C30.1662 16.7966 31.222 17.242 32.0018 18.0301C32.7816 18.8182 33.2223 19.8853 33.2284 20.9998Z" fill="#FFD901"/>
<path d="M33.2284 12.6048C33.2284 13.4373 32.9841 14.2511 32.5264 14.9433C32.0688 15.6355 31.4183 16.175 30.6573 16.4936C29.8962 16.8122 29.0588 16.8955 28.2509 16.7331C27.4429 16.5707 26.7008 16.1698 26.1183 15.5811C25.5358 14.9925 25.1392 14.2425 24.9785 13.4259C24.8178 12.6094 24.9002 11.7631 25.2155 10.9939C25.5307 10.2248 26.0645 9.56741 26.7495 9.10489C27.4344 8.64238 28.2396 8.39551 29.0634 8.39551C30.168 8.39551 31.2274 8.83898 32.0085 9.62837C32.7896 10.4178 33.2284 11.4884 33.2284 12.6048Z" fill="#BDCF0C"/>
<path d="M33.2284 29.3953C33.2284 30.2278 32.9841 31.0416 32.5264 31.7338C32.0688 32.426 31.4183 32.9655 30.6573 33.2841C29.8962 33.6027 29.0588 33.6861 28.2509 33.5237C27.4429 33.3612 26.7008 32.9603 26.1183 32.3717C25.5358 31.783 25.1392 31.033 24.9785 30.2165C24.8178 29.4 24.9002 28.5536 25.2155 27.7845C25.5307 27.0153 26.0645 26.3579 26.7495 25.8954C27.4344 25.4329 28.2396 25.186 29.0634 25.186C30.168 25.186 31.2274 25.6295 32.0085 26.4189C32.7896 27.2083 33.2284 28.2789 33.2284 29.3953Z" fill="#BDCF0C"/>
<path d="M24.8974 20.9998C24.8928 21.8267 24.6461 22.6338 24.1882 23.3191C23.7303 24.0045 23.0819 24.5374 22.3246 24.8507C21.5674 25.164 20.7352 25.2436 19.9333 25.0795C19.1313 24.9154 18.3954 24.5149 17.8184 23.9285C17.2414 23.3422 16.8492 22.5962 16.6912 21.7849C16.5332 20.9735 16.6166 20.133 16.9308 19.3694C17.2449 18.6058 17.7758 17.9534 18.4565 17.4944C19.1371 17.0355 19.937 16.7905 20.7553 16.7905C21.8559 16.7966 22.9094 17.2428 23.6856 18.0315C24.4617 18.8203 24.8974 19.8874 24.8974 20.9998Z" fill="#F18B1A"/>
<path d="M24.8974 12.6048C24.8928 13.4317 24.6461 14.2388 24.1882 14.9241C23.7303 15.6095 23.0819 16.1424 22.3246 16.4557C21.5674 16.769 20.7352 16.8486 19.9333 16.6845C19.1313 16.5204 18.3954 16.1199 17.8184 15.5335C17.2414 14.9472 16.8492 14.2012 16.6912 13.3898C16.5332 12.5784 16.6166 11.7379 16.9308 10.9744C17.2449 10.2108 17.7758 9.55838 18.4565 9.09942C19.1371 8.64046 19.937 8.39552 20.7553 8.39551C21.3012 8.3955 21.8417 8.50454 22.3457 8.71636C22.8497 8.92817 23.3074 9.23859 23.6923 9.62976C24.0772 10.0209 24.3819 10.4851 24.5887 10.9957C24.7955 11.5063 24.9004 12.0531 24.8974 12.6048Z" fill="#FBBD0B"/>
<path d="M24.8974 4.20925C24.8928 5.03619 24.6461 5.84325 24.1882 6.5286C23.7303 7.21396 23.0819 7.7469 22.3246 8.06019C21.5674 8.37349 20.7352 8.4531 19.9333 8.28897C19.1313 8.12485 18.3954 7.72434 17.8184 7.13799C17.2414 6.55164 16.8492 5.80572 16.6912 4.99433C16.5332 4.18294 16.6166 3.34243 16.9308 2.57887C17.2449 1.8153 17.7758 1.16288 18.4565 0.703915C19.1371 0.244952 19.937 1.26215e-05 20.7553 4.8759e-10C21.3012 -8.41936e-06 21.8417 0.10903 22.3457 0.320848C22.8497 0.532665 23.3074 0.843082 23.6923 1.23425C24.0772 1.62542 24.3819 2.08963 24.5887 2.60019C24.7955 3.11074 24.9004 3.65758 24.8974 4.20925Z" fill="#63B22F"/>
<path d="M24.8974 29.3953C24.8928 30.2222 24.6461 31.0293 24.1882 31.7146C23.7303 32.4 23.0819 32.9329 22.3246 33.2462C21.5674 33.5595 20.7352 33.6391 19.9333 33.475C19.1313 33.3109 18.3954 32.9104 17.8184 32.324C17.2414 31.7377 16.8492 30.9918 16.6912 30.1804C16.5332 29.369 16.6166 28.5285 16.9308 27.7649C17.2449 27.0013 17.7758 26.3489 18.4565 25.89C19.1371 25.431 19.937 25.186 20.7553 25.186C21.3012 25.186 21.8417 25.2951 22.3457 25.5069C22.8497 25.7187 23.3074 26.0291 23.6923 26.4203C24.0772 26.8115 24.3819 27.2757 24.5887 27.7862C24.7955 28.2968 24.9004 28.8436 24.8974 29.3953Z" fill="#E85121"/>
<path d="M16.6131 20.9998C16.6131 21.8323 16.3689 22.6461 15.9112 23.3383C15.4535 24.0305 14.8031 24.57 14.042 24.8886C13.281 25.2072 12.4435 25.2906 11.6356 25.1281C10.8277 24.9657 10.0856 24.5648 9.50309 23.9762C8.92061 23.3875 8.52394 22.6375 8.36323 21.821C8.20253 21.0044 8.28501 20.1581 8.60024 19.389C8.91548 18.6198 9.44931 17.9624 10.1342 17.4999C10.8192 17.0374 11.6244 16.7905 12.4482 16.7905C13.5528 16.7905 14.6122 17.234 15.3932 18.0234C16.1743 18.8128 16.6131 19.8834 16.6131 20.9998Z" fill="#BDCF0C"/>
<path d="M24.8974 37.7908C24.8928 38.6177 24.6461 39.4248 24.1882 40.1101C23.7303 40.7955 23.0819 41.3284 22.3246 41.6417C21.5674 41.955 20.7352 42.0346 19.9333 41.8705C19.1313 41.7064 18.3954 41.3059 17.8184 40.7195C17.2414 40.1332 16.8492 39.3873 16.6912 38.5759C16.5332 37.7645 16.6166 36.924 16.9308 36.1604C17.2449 35.3968 17.7758 34.7444 18.4565 34.2855C19.1371 33.8265 19.937 33.5816 20.7553 33.5815C21.8559 33.5877 22.9094 34.0338 23.6856 34.8225C24.4617 35.6113 24.8974 36.6784 24.8974 37.7908Z" fill="#E73889"/>
<path d="M16.5907 12.6048C16.5862 13.4317 16.3394 14.2388 15.8816 14.9241C15.4237 15.6095 14.7752 16.1424 14.018 16.4557C13.2607 16.769 12.4286 16.8486 11.6266 16.6845C10.8247 16.5204 10.0888 16.1199 9.51177 15.5335C8.93478 14.9472 8.54255 14.2012 8.38457 13.3898C8.2266 12.5784 8.30995 11.7379 8.62411 10.9744C8.93828 10.2108 9.46918 9.55838 10.1498 9.09942C10.8305 8.64046 11.6304 8.39552 12.4487 8.39551C12.9945 8.3955 13.535 8.50454 14.0391 8.71636C14.5431 8.92817 15.0007 9.23859 15.3857 9.62976C15.7706 10.0209 16.0752 10.4851 16.282 10.9957C16.4888 11.5063 16.5937 12.0531 16.5907 12.6048Z" fill="#09A338"/>
<path d="M16.5907 29.3953C16.5862 30.2222 16.3394 31.0293 15.8816 31.7146C15.4237 32.4 14.7752 32.9329 14.018 33.2462C13.2607 33.5595 12.4286 33.6391 11.6266 33.475C10.8247 33.3109 10.0888 32.9104 9.51177 32.324C8.93478 31.7377 8.54255 30.9918 8.38457 30.1804C8.2266 29.369 8.30995 28.5285 8.62411 27.7649C8.93828 27.0013 9.46918 26.3489 10.1498 25.89C10.8305 25.431 11.6304 25.186 12.4487 25.186C12.9945 25.186 13.535 25.2951 14.0391 25.5069C14.5431 25.7187 15.0007 26.0291 15.3857 26.4203C15.7706 26.8115 16.0752 27.2757 16.282 27.7862C16.4888 28.2968 16.5937 28.8436 16.5907 29.3953Z" fill="#0097D5"/>
<path d="M8.30648 20.9998C8.30647 21.8333 8.06161 22.6481 7.60294 23.3408C7.14427 24.0335 6.49243 24.5729 5.73005 24.8908C4.96767 25.2087 4.12907 25.2907 3.32053 25.1264C2.51199 24.9621 1.76991 24.5589 1.18835 23.968C0.606792 23.377 0.211934 22.6248 0.0538222 21.8068C-0.10429 20.9887 -0.0185379 20.1417 0.30021 19.3729C0.618958 18.6042 1.15635 17.9484 1.84428 17.4887C2.53221 17.029 3.3397 16.786 4.16441 16.7906C5.26505 16.7967 6.31856 17.2429 7.0947 18.0316C7.87083 18.8203 8.3065 19.8875 8.30648 20.9998Z" fill="#F9B410"/>
<path d="M33.2286 20.9999C33.2241 20.1654 33.4651 19.3484 33.921 18.6527C34.3769 17.957 35.0271 17.4139 35.7891 17.0924C36.551 16.771 37.3904 16.6857 38.2004 16.8473C39.0105 17.009 39.7547 17.4104 40.3385 18.0004C40.9224 18.5905 41.3195 19.3426 41.4795 20.1613C41.6395 20.98 41.5551 21.8282 41.237 22.5983C40.9189 23.3684 40.3816 24.0255 39.6931 24.4863C39.0047 24.947 38.1963 25.1906 37.3707 25.186C36.274 25.1799 35.2239 24.737 34.4484 23.9532C33.6729 23.1695 33.2346 22.1083 33.2286 20.9999Z" fill="#F18B1A"/>
<path d="M33.2285 29.3954C33.233 28.5685 33.4798 27.7614 33.9377 27.0761C34.3956 26.3907 35.044 25.8578 35.8013 25.5445C36.5585 25.2312 37.3906 25.1516 38.1926 25.3157C38.9946 25.4798 39.7305 25.8803 40.3075 26.4667C40.8845 27.053 41.2767 27.799 41.4347 28.6103C41.5926 29.4217 41.5093 30.2622 41.1951 31.0258C40.881 31.7894 40.3501 32.4418 39.6694 32.9008C38.9888 33.3597 38.1888 33.6047 37.3706 33.6047C36.2699 33.5986 35.2164 33.1524 34.4403 32.3637C33.6642 31.5749 33.2285 30.5078 33.2285 29.3954Z" fill="#FBBD0B"/>
<path d="M33.2286 37.7909C33.2331 36.964 33.4799 36.1569 33.9377 35.4716C34.3956 34.7862 35.0441 34.2533 35.8013 33.94C36.5586 33.6267 37.3907 33.5471 38.1927 33.7112C38.9946 33.8753 39.7305 34.2758 40.3075 34.8622C40.8845 35.4485 41.2768 36.1945 41.4347 37.0058C41.5927 37.8172 41.5094 38.6577 41.1952 39.4213C40.881 40.1849 40.3501 40.8373 39.6695 41.2963C38.9888 41.7552 38.1889 42.0002 37.3707 42.0002C36.8248 42.0002 36.2843 41.8911 35.7802 41.6793C35.2762 41.4675 34.8186 41.1571 34.4336 40.7659C34.0487 40.3748 33.7441 39.9105 33.5373 39.4C33.3305 38.8894 33.2256 38.3426 33.2286 37.7909Z" fill="#63B22F"/>
<path d="M33.2285 12.6046C33.2285 11.7766 33.4714 10.9673 33.9266 10.2789C34.3817 9.59049 35.0286 9.05395 35.7855 8.73711C36.5424 8.42027 37.3752 8.33737 38.1787 8.49889C38.9821 8.66042 39.7202 9.05911 40.2995 9.64455C40.8788 10.23 41.2732 10.9759 41.4331 11.7879C41.5929 12.5999 41.5109 13.4416 41.1974 14.2065C40.8839 14.9715 40.353 15.6252 39.6718 16.0852C38.9906 16.5452 38.1898 16.7907 37.3706 16.7907C36.272 16.7907 35.2185 16.3497 34.4417 15.5646C33.6649 14.7796 33.2285 13.7148 33.2285 12.6046Z" fill="#E85121"/>
<path d="M41.5352 20.9999C41.5399 20.1769 41.7845 19.3736 42.2384 18.6904C42.6924 18.0072 43.3355 17.4743 44.0875 17.1585C44.8394 16.8426 45.6668 16.7578 46.4662 16.9145C47.2656 17.0713 48.0015 17.4627 48.582 18.0399C49.1625 18.617 49.5618 19.3543 49.7299 20.1595C49.8981 20.9648 49.8277 21.8022 49.5275 22.5672C49.2273 23.3322 48.7107 23.9908 48.0421 24.4607C47.3736 24.9306 46.5829 25.1909 45.7688 25.2091C44.6681 25.203 43.6146 24.7568 42.8385 23.9681C42.0623 23.1794 41.6267 22.1122 41.6267 20.9999" fill="#BDCF0C"/>
<path d="M33.2285 4.20907C33.2285 3.38114 33.4714 2.57179 33.9266 1.88339C34.3817 1.19498 35.0286 0.658439 35.7855 0.341601C36.5424 0.024763 37.3752 -0.0581362 38.1787 0.103386C38.9821 0.264909 39.7202 0.663598 40.2995 1.24904C40.8788 1.83448 41.2732 2.58037 41.4331 3.3924C41.5929 4.20443 41.5109 5.04612 41.1974 5.81103C40.8839 6.57595 40.353 7.22973 39.6718 7.68971C38.9906 8.14969 38.1898 8.3952 37.3706 8.3952C36.272 8.3952 35.2185 7.95416 34.4417 7.16911C33.6649 6.38406 33.2285 5.3193 33.2285 4.20907Z" fill="#E73889"/>
<path d="M41.5352 29.3954C41.5399 28.5724 41.7845 27.7691 42.2384 27.0859C42.6924 26.4027 43.3355 25.8698 44.0875 25.554C44.8394 25.2381 45.6668 25.1533 46.4662 25.3101C47.2656 25.4668 48.0015 25.8582 48.582 26.4354C49.1625 27.0125 49.5618 27.7498 49.7299 28.555C49.8981 29.3603 49.8277 30.1977 49.5275 30.9627C49.2273 31.7277 48.7107 32.3863 48.0421 32.8562C47.3736 33.3261 46.5829 33.5864 45.7688 33.6046C44.6681 33.5985 43.6146 33.1523 42.8385 32.3636C42.0623 31.5749 41.6267 30.5077 41.6267 29.3954" fill="#09A338"/>
<path d="M41.5352 12.6045C41.5354 11.7806 41.7762 10.975 42.2274 10.2888C42.6786 9.6025 43.3202 9.06607 44.0717 8.7467C44.8233 8.42732 45.6513 8.3392 46.4522 8.49336C47.2531 8.64753 47.9912 9.03713 48.5739 9.61335C49.1567 10.1896 49.5582 10.9268 49.7282 11.7326C49.8983 12.5385 49.8292 13.3771 49.5297 14.1434C49.2301 14.9098 48.7135 15.5697 48.0445 16.0406C47.3755 16.5115 46.5839 16.7725 45.7688 16.7907C44.6702 16.7907 43.6167 16.3496 42.8399 15.5646C42.0631 14.7795 41.6267 13.7148 41.6267 12.6045" fill="#0097D5"/>
<path d="M49.8418 21.0001C49.8418 20.1722 50.0847 19.3628 50.5399 18.6744C50.995 17.986 51.6419 17.4495 52.3988 17.1326C53.1556 16.8158 53.9885 16.7329 54.7919 16.8944C55.5954 17.0559 56.3335 17.4546 56.9128 18.0401C57.492 18.6255 57.8865 19.3714 58.0464 20.1834C58.2062 20.9954 58.1242 21.8371 57.8106 22.6021C57.4971 23.367 56.9662 24.0207 56.2851 24.4807C55.6039 24.9407 54.8031 25.1862 53.9839 25.1862C52.8872 25.1801 51.8371 24.7372 51.0616 23.9534C50.2861 23.1697 49.8478 22.1084 49.8418 21.0001Z" fill="#F9B410"/>
</g>
<defs>
<clipPath id="clip0_1703_16680">
<rect width="480" height="42" fill="white"/>
</clipPath>
</defs>
</svg>
