<svg id="Capa_1" data-name="Capa 1" xmlns="http://www.w3.org/2000/svg" viewBox="0 0 649.07 170.31"><defs><style>.cls-1{fill:#5583aa;}.cls-2{fill:#fff;stroke:#1f140f;stroke-miterlimit:10;}.cls-3{fill:none;}.cls-4{fill:#89a7c7;}.cls-5{fill:#a5cce3;}.cls-6{fill:#00a5ae;}</style></defs><title>Logotipo</title><path class="cls-1" d="M183.71,142.78h-7.6V129.22h2.2v11.6h5.4Z" transform="translate(0 -0.02)"/><path class="cls-1" d="M192.58,135.93v4.52a.91.91,0,0,0,.23.64,1.09,1.09,0,0,0,.64.27l-.06,1.64a4.16,4.16,0,0,1-2.63-.73,7.52,7.52,0,0,1-3.19.73q-3,0-2.95-3.15a2.69,2.69,0,0,1,.8-2.17,4.44,4.44,0,0,1,2.47-.82l2.55-.21v-.72a1.19,1.19,0,0,0-1.36-1.42c-.85,0-1.9.05-3.17.16l-.64,0-.07-1.53a17.29,17.29,0,0,1,4-.51,3.67,3.67,0,0,1,2.61.78A3.36,3.36,0,0,1,192.58,135.93Zm-4.43,2.46a1.33,1.33,0,0,0-1.37,1.48c0,.91.4,1.37,1.21,1.37a7.72,7.72,0,0,0,2.1-.32l.35-.12v-2.63Z" transform="translate(0 -0.02)"/><path class="cls-1" d="M199.91,132.67a3.52,3.52,0,0,1,2.94,1.14,6.67,6.67,0,0,1,.9,4c0,1.93-.36,3.27-1.07,4s-2,1.14-3.76,1.14c-.62,0-1.61-.06-2.95-.18l-.68-.06v-14h2.14v4.49A6.22,6.22,0,0,1,199.91,132.67Zm-1,8.41a2.44,2.44,0,0,0,2.1-.74,4.56,4.56,0,0,0,.53-2.53,5,5,0,0,0-.45-2.5,1.57,1.57,0,0,0-1.45-.72,6.59,6.59,0,0,0-1.9.29l-.32.1v6C198.16,141.06,198.65,141.08,198.92,141.08Z" transform="translate(0 -0.02)"/><path class="cls-1" d="M206.45,134a5.14,5.14,0,0,1,6.79,0,6.15,6.15,0,0,1,1,3.86,6.41,6.41,0,0,1-1,3.89,5.16,5.16,0,0,1-6.85,0,6.41,6.41,0,0,1-1-3.89A6.15,6.15,0,0,1,206.45,134Zm1.61,6.44a2.41,2.41,0,0,0,3.57,0,5.53,5.53,0,0,0,.45-2.59,5,5,0,0,0-.48-2.56,2.43,2.43,0,0,0-3.51,0,5,5,0,0,0-.48,2.56A5.53,5.53,0,0,0,208.06,140.39Z" transform="translate(0 -0.02)"/><path class="cls-1" d="M216.4,142.78v-9.89h2.14v1.18a9.45,9.45,0,0,1,3.36-1.4v2.16a13.6,13.6,0,0,0-2.91.87l-.43.17v6.91Z" transform="translate(0 -0.02)"/><path class="cls-1" d="M230.87,135.93v4.52a1,1,0,0,0,.23.64,1.09,1.09,0,0,0,.64.27l-.06,1.64a4.16,4.16,0,0,1-2.63-.73,7.52,7.52,0,0,1-3.19.73c-2,0-3-1.05-3-3.15a2.69,2.69,0,0,1,.8-2.17,4.44,4.44,0,0,1,2.47-.82l2.55-.21v-.72a1.45,1.45,0,0,0-.34-1.1,1.42,1.42,0,0,0-1-.32c-.85,0-1.9.05-3.17.16l-.63,0-.08-1.53a17.36,17.36,0,0,1,4-.51,3.65,3.65,0,0,1,2.61.78A3.36,3.36,0,0,1,230.87,135.93Zm-4.43,2.46a1.33,1.33,0,0,0-1.37,1.48c0,.91.4,1.37,1.21,1.37a7.72,7.72,0,0,0,2.1-.32l.35-.12v-2.63Z" transform="translate(0 -0.02)"/><path class="cls-1" d="M238.91,134.73h-2.73v4.35a4.63,4.63,0,0,0,.18,1.61c.11.26.42.39.91.39l1.62-.06.1,1.72a10.9,10.9,0,0,1-2,.26,2.87,2.87,0,0,1-2.31-.77,4.89,4.89,0,0,1-.62-2.91v-4.59h-1.27v-1.84H234V130h2.14v2.88h2.73Z" transform="translate(0 -0.02)"/><path class="cls-1" d="M241.22,134a5.14,5.14,0,0,1,6.79,0,6.15,6.15,0,0,1,1,3.86,6.41,6.41,0,0,1-1,3.89,5.16,5.16,0,0,1-6.85,0,6.41,6.41,0,0,1-1-3.89A6.15,6.15,0,0,1,241.22,134Zm1.61,6.44a2.4,2.4,0,0,0,3.56,0,5.38,5.38,0,0,0,.46-2.59,4.88,4.88,0,0,0-.49-2.56,2.42,2.42,0,0,0-3.5,0,5,5,0,0,0-.48,2.56A5.53,5.53,0,0,0,242.83,140.39Z" transform="translate(0 -0.02)"/><path class="cls-1" d="M251.17,142.78v-9.89h2.13v1.18a9.57,9.57,0,0,1,3.37-1.4v2.16a13.26,13.26,0,0,0-2.91.87l-.44.17v6.91Z" transform="translate(0 -0.02)"/><path class="cls-1" d="M258.31,131.2v-2.27h2.16v2.27Zm0,11.58v-9.89h2.16v9.89Z" transform="translate(0 -0.02)"/><path class="cls-1" d="M263.63,134a5.14,5.14,0,0,1,6.79,0,6.15,6.15,0,0,1,1,3.86,6.41,6.41,0,0,1-1,3.89,5.16,5.16,0,0,1-6.85,0,6.41,6.41,0,0,1-1-3.89A6.15,6.15,0,0,1,263.63,134Zm1.61,6.44a2.41,2.41,0,0,0,3.57,0,5.53,5.53,0,0,0,.45-2.59,5,5,0,0,0-.48-2.56,2.43,2.43,0,0,0-3.51,0,5,5,0,0,0-.48,2.56A5.53,5.53,0,0,0,265.24,140.39Z" transform="translate(0 -0.02)"/><path class="cls-1" d="M281.64,132.67a13.5,13.5,0,0,1,2.47.27l.49.1-.07,1.71c-1-.11-1.82-.16-2.32-.16a2.43,2.43,0,0,0-2,.67,4.46,4.46,0,0,0-.51,2.54,4.8,4.8,0,0,0,.49,2.57,2.4,2.4,0,0,0,2.06.71l2.32-.16.05,1.73a19.47,19.47,0,0,1-3,.35,3.71,3.71,0,0,1-3.18-1.22,6.65,6.65,0,0,1-.92-4,6.23,6.23,0,0,1,1-4A3.85,3.85,0,0,1,281.64,132.67Z" transform="translate(0 -0.02)"/><path class="cls-1" d="M286.8,142.78v-14H289v14Z" transform="translate(0 -0.02)"/><path class="cls-1" d="M291.06,130l4.67-2,.67,1.87-4.83,1.54Zm.63,2.92h2.16v9.89h-2.16Z" transform="translate(0 -0.02)"/><path class="cls-1" d="M298.62,142.78h-2.16v-9.89h2.14v.61a5.49,5.49,0,0,1,2.74-.83,3,3,0,0,1,2.7,1.12,7.07,7.07,0,0,1,.72,3.69v5.3h-2.14v-5.24a5.42,5.42,0,0,0-.34-2.28,1.45,1.45,0,0,0-1.42-.67,5,5,0,0,0-1.94.39l-.3.12Z" transform="translate(0 -0.02)"/><path class="cls-1" d="M307.27,131.2v-2.27h2.16v2.27Zm0,11.58v-9.89h2.16v9.89Z" transform="translate(0 -0.02)"/><path class="cls-1" d="M315.75,132.67a13.5,13.5,0,0,1,2.47.27l.5.1-.08,1.71c-1-.11-1.82-.16-2.32-.16a2.45,2.45,0,0,0-2,.67,4.46,4.46,0,0,0-.51,2.54,4.8,4.8,0,0,0,.49,2.57,2.4,2.4,0,0,0,2.06.71l2.32-.16.06,1.73a19.7,19.7,0,0,1-3,.35,3.71,3.71,0,0,1-3.18-1.22,6.72,6.72,0,0,1-.92-4,6.23,6.23,0,0,1,1-4A3.87,3.87,0,0,1,315.75,132.67Z" transform="translate(0 -0.02)"/><path class="cls-1" d="M321.24,134a5.14,5.14,0,0,1,6.79,0,6.15,6.15,0,0,1,1,3.86,6.41,6.41,0,0,1-1,3.89,5.16,5.16,0,0,1-6.85,0,6.41,6.41,0,0,1-1-3.89A6.15,6.15,0,0,1,321.24,134Zm1.62,6.44a2.4,2.4,0,0,0,3.56,0,5.51,5.51,0,0,0,.46-2.59,5,5,0,0,0-.49-2.56,2.42,2.42,0,0,0-3.5,0,4.88,4.88,0,0,0-.49,2.56A5.38,5.38,0,0,0,322.86,140.39Z" transform="translate(0 -0.02)"/><path class="cls-1" d="M334.64,132.89h2.11l2.1,8.05h.54l2.1-8.05h2.13L339.86,147h-2.12l1.19-4.26h-1.7Z" transform="translate(0 -0.02)"/><path class="cls-1" d="M351.8,142.78h-2.16v-9.89h2.14v.61a5.11,5.11,0,0,1,2.57-.83,3.06,3.06,0,0,1,2.52,1,7.45,7.45,0,0,1,3.58-1,2.79,2.79,0,0,1,2.52,1.1,7,7,0,0,1,.73,3.71v5.3h-2.14v-5.24a5.85,5.85,0,0,0-.32-2.28,1.36,1.36,0,0,0-1.36-.67A5.43,5.43,0,0,0,358,135l-.34.14a10.5,10.5,0,0,1,.16,2.54v5.12h-2.14V137.7a6.47,6.47,0,0,0-.31-2.44,1.38,1.38,0,0,0-1.39-.67,4.37,4.37,0,0,0-1.84.39l-.3.12Z" transform="translate(0 -0.02)"/><path class="cls-1" d="M366.78,134a5.14,5.14,0,0,1,6.79,0,6.15,6.15,0,0,1,1,3.86,6.41,6.41,0,0,1-1,3.89,5.16,5.16,0,0,1-6.85,0,6.41,6.41,0,0,1-1-3.89A6.15,6.15,0,0,1,366.78,134Zm1.61,6.44a2.41,2.41,0,0,0,3.57,0,5.53,5.53,0,0,0,.45-2.59,5,5,0,0,0-.48-2.56,2.43,2.43,0,0,0-3.51,0,5,5,0,0,0-.48,2.56A5.53,5.53,0,0,0,368.39,140.39Z" transform="translate(0 -0.02)"/><path class="cls-1" d="M376.85,142.78v-14H379v14Z" transform="translate(0 -0.02)"/><path class="cls-1" d="M388.79,141l.55-.06,0,1.61a20.8,20.8,0,0,1-4,.45,3.78,3.78,0,0,1-3.16-1.21,6.2,6.2,0,0,1-1-3.86q0-5.27,4.3-5.26t4.16,4.53l-.14,1.55h-6.14a2.74,2.74,0,0,0,.53,1.8,2.56,2.56,0,0,0,1.92.57C386.83,141.12,387.8,141.08,388.79,141Zm-1.19-3.92a3.39,3.39,0,0,0-.47-2.05,1.89,1.89,0,0,0-1.57-.58,2,2,0,0,0-1.62.61,3.31,3.31,0,0,0-.52,2Z" transform="translate(0 -0.02)"/><path class="cls-1" d="M395.5,132.67a13.5,13.5,0,0,1,2.47.27l.5.1-.08,1.71c-1.05-.11-1.82-.16-2.32-.16a2.43,2.43,0,0,0-2,.67,4.46,4.46,0,0,0-.51,2.54,4.8,4.8,0,0,0,.49,2.57,2.4,2.4,0,0,0,2.06.71l2.32-.16.06,1.73a19.7,19.7,0,0,1-3,.35,3.71,3.71,0,0,1-3.18-1.22,6.72,6.72,0,0,1-.92-4,6.23,6.23,0,0,1,1-4A3.87,3.87,0,0,1,395.5,132.67Z" transform="translate(0 -0.02)"/><path class="cls-1" d="M406.54,132.89h2.14v9.89h-2.14v-.61a5.45,5.45,0,0,1-2.67.83,3,3,0,0,1-2.73-1.1,7.7,7.7,0,0,1-.69-3.85v-5.16h2.15v5.18a6.31,6.31,0,0,0,.3,2.4c.2.41.66.61,1.39.61a4.86,4.86,0,0,0,2-.39l.29-.12Z" transform="translate(0 -0.02)"/><path class="cls-1" d="M411.42,142.78v-14h2.15v14Z" transform="translate(0 -0.02)"/><path class="cls-1" d="M423.63,135.93v4.52a.91.91,0,0,0,.23.64,1.09,1.09,0,0,0,.64.27l-.06,1.64a4.16,4.16,0,0,1-2.63-.73,7.52,7.52,0,0,1-3.19.73q-3,0-2.95-3.15a2.69,2.69,0,0,1,.8-2.17,4.44,4.44,0,0,1,2.47-.82l2.55-.21v-.72a1.19,1.19,0,0,0-1.36-1.42c-.85,0-1.9.05-3.17.16l-.64,0-.07-1.53a17.29,17.29,0,0,1,4-.51,3.67,3.67,0,0,1,2.61.78A3.36,3.36,0,0,1,423.63,135.93Zm-4.43,2.46a1.33,1.33,0,0,0-1.37,1.48c0,.91.4,1.37,1.21,1.37a7.72,7.72,0,0,0,2.1-.32l.35-.12v-2.63Z" transform="translate(0 -0.02)"/><path class="cls-1" d="M426.34,142.78v-9.89h2.14v1.18a9.42,9.42,0,0,1,3.37-1.4v2.16a13.26,13.26,0,0,0-2.91.87l-.44.17v6.91Z" transform="translate(0 -0.02)"/><path class="cls-2" d="M183.84,122.69" transform="translate(0 -0.02)"/><path class="cls-1" d="M110.43,44h17.69l-6.79,38s-2.94,11.5,12.09,11.5,17.4-20.93,17.4-20.93l5-28.6h17.1l-11.79,64.27H147.87L147,99.1s-2.94,8.55-20.93,9.14S101.29,96,104.24,79.14,110.43,44,110.43,44Z" transform="translate(0 -0.02)"/><path class="cls-1" d="M238.08,44l-4.42,8.84c-3.54-6.33-10.91-9.73-20.93-9.87s-34.94,6.48-35.53,36.2,27.47,30,27.47,30c16.22,0,21.82-9.33,21.82-9.33l.39,8.47h12.68L251.65,44ZM210.37,93.5c-15.77-.89-15.62-14.36-15.62-14.36.59-21,19.67-20.72,19.67-20.72,16,1,14.67,15,14.67,15C229.39,77,226.14,92.61,210.37,93.5Z" transform="translate(0 -0.02)"/><path class="cls-1" d="M347.71,43.9l-4.43,8.84c-3.53-6.34-10.9-9.73-20.93-9.88s-34.93,6.49-35.52,36.21,27.46,30,27.46,30c16.22,0,21.82-9.33,21.82-9.33l.39,8.47h12.68L361.27,43.9ZM320,93.43c-15.77-.89-15.62-14.36-15.62-14.36C305,58.08,324,58.34,324,58.34c16,1,14.67,15,14.67,15C339,76.92,335.77,92.54,320,93.43Z" transform="translate(0 -0.02)"/><polygon class="cls-1" points="270.81 14.77 287.91 14.77 270.81 107.64 253.41 107.64 270.81 14.77"/><path class="cls-1" d="M397.58,14.78h-17.1l-17.39,92.87h12l5.22-8.55,5.05-24.73s.06-.43.24-1.14Z" transform="translate(0 -0.02)"/><path class="cls-1" d="M408.79,42.86c-12.68,0-23,11.13-23,11.13l-5.45,43.34s4.27,12.09,22.25,11.79,33.91-13.56,33.91-36S421.46,42.86,408.79,42.86Zm10.61,33s-1.18,17.55-18.28,17.55c0,0-18.88,1.33-15.73-19.05h0l.24-1.14c.88-3.64,4.74-14.7,19-14.89C421.76,58.12,419.4,75.88,419.4,75.88Z" transform="translate(0 -0.02)"/><path class="cls-1" d="M385.39,74.37l.24-1.14C385.45,73.94,385.39,74.37,385.39,74.37Z" transform="translate(0 -0.02)"/><path class="cls-3" d="M563.22,39.46a27.91,27.91,0,0,0,27.53-23.4H535.68A27.91,27.91,0,0,0,563.22,39.46Z" transform="translate(0 -0.02)"/><path class="cls-1" d="M563.52,38.86A27.91,27.91,0,0,1,536,15.45H517.22a46.52,46.52,0,0,0,92.6,0H591.05A27.91,27.91,0,0,1,563.52,38.86Z" transform="translate(0 -0.02)"/><circle class="cls-1" cx="563.52" cy="15.34" r="15.33" transform="translate(154.2 402.95) rotate(-45)"/><path class="cls-4" d="M563.52,131.48a27.91,27.91,0,0,1,27.53,23.41h18.77a46.52,46.52,0,0,0-92.6,0H536A27.91,27.91,0,0,1,563.52,131.48Z" transform="translate(0 -0.02)"/><circle class="cls-4" cx="563.52" cy="155" r="15.33" transform="translate(283.2 667.81) rotate(-76.72)"/><path class="cls-5" d="M516.2,85.21a27.9,27.9,0,0,1-23.4,27.53v18.77a46.52,46.52,0,0,0,0-92.6V57.68A27.91,27.91,0,0,1,516.2,85.21Z" transform="translate(0 -0.02)"/><circle class="cls-5" cx="492.69" cy="85.21" r="15.33" transform="translate(84.05 373.33) rotate(-45)"/><path class="cls-6" d="M610.23,85.21a27.91,27.91,0,0,1,23.4-27.53V38.91a46.52,46.52,0,0,0,0,92.6V112.74A27.9,27.9,0,0,1,610.23,85.21Z" transform="translate(0 -0.02)"/><circle class="cls-6" cx="633.74" cy="85.21" r="15.33" transform="translate(405.2 682.4) rotate(-76.72)"/><path class="cls-5" d="M535.59,85.21a27.93,27.93,0,0,1,27.93-27.93V38.68a46.53,46.53,0,1,0,0,93.06v-18.6A27.92,27.92,0,0,1,535.59,85.21Z" transform="translate(0 -0.02)"/><path class="cls-6" d="M610.05,85.21a46.53,46.53,0,0,0-46.53-46.53v18.6a27.93,27.93,0,1,1,0,55.86v18.6A46.53,46.53,0,0,0,610.05,85.21Z" transform="translate(0 -0.02)"/><path class="cls-5" d="M20.79,79S10.85,58.06,25.94,41.6s38.06-12,45.61-4.46,12.34,24.69,4.11,37.72A36.22,36.22,0,0,1,45.14,92s-3.09-6.17-15.43-4.46l-7.55,15.09a32.56,32.56,0,0,0,19.89,5.49,181.09,181.09,0,0,0,34.3,24.69c19.55,10.63,55.9,16.81,88.14,0l-3.09-14.74S143.57,128,123.33,128s-33.6-.68-60-22.63A48.08,48.08,0,0,0,94.18,74.52c8.06-23.66.69-43.21-17.49-54.87S27.48,14.85,13.59,31C.89,45.7-6.64,67,8.1,90.64Z" transform="translate(0 -0.02)"/></svg>